<?xml version="1.0" encoding="UTF-8" standalone="no"?>
<!-- Created with Inkscape (http://www.inkscape.org/) -->

<svg
   width="512"
   height="512"
   viewBox="0 0 512 512"
   version="1.1"
   id="svg1"
   xml:space="preserve"
   xmlns:xlink="http://www.w3.org/1999/xlink"
   xmlns="http://www.w3.org/2000/svg"
   xmlns:svg="http://www.w3.org/2000/svg"><defs
     id="defs1"><linearGradient
       id="linearGradient61"><stop
         style="stop-color:#d2d6d9;stop-opacity:1;"
         offset="0"
         id="stop61" /><stop
         style="stop-color:#d8dde0;stop-opacity:0.98523986;"
         offset="1"
         id="stop62" /></linearGradient><linearGradient
       id="linearGradient59"><stop
         style="stop-color:#bac0c4;stop-opacity:1;"
         offset="0"
         id="stop59" /><stop
         style="stop-color:#bcc3c6;stop-opacity:1;"
         offset="1"
         id="stop60" /></linearGradient><linearGradient
       id="linearGradient57"><stop
         style="stop-color:#bac0c4;stop-opacity:1;"
         offset="0"
         id="stop57" /><stop
         style="stop-color:#899096;stop-opacity:0.72324723;"
         offset="1"
         id="stop58" /></linearGradient><linearGradient
       xlink:href="#linearGradient57"
       id="linearGradient58"
       x1="250.25439"
       y1="202.19409"
       x2="458.07803"
       y2="320.3945"
       gradientUnits="userSpaceOnUse" /><linearGradient
       xlink:href="#linearGradient59"
       id="linearGradient60"
       x1="42.350662"
       y1="424.08014"
       x2="242.26189"
       y2="320.22659"
       gradientUnits="userSpaceOnUse" /><linearGradient
       xlink:href="#linearGradient61"
       id="linearGradient62"
       x1="217.90671"
       y1="453.50604"
       x2="257.27094"
       y2="236.35936"
       gradientUnits="userSpaceOnUse" /></defs><g
     id="layer1"><path
       style="fill:#ebeef0"
       d="m 286.27023,96.656838 c 5.55187,-1.648728 11.98416,-6.871249 11.98416,-9.730211 0,-1.191537 -1.35528,-0.828584 -6.16116,1.65 -5.8885,3.036938 -6.67794,3.177557 -17.83884,3.177557 -11.1609,0 -11.95034,-0.140619 -17.83884,-3.177557 -5.15301,-2.657613 -6.15596,-2.903058 -6.12936,-1.5 0.15882,8.377077 21.18513,13.975013 35.98404,9.580211 z"
       id="path42" /><path
       style="fill:#ebeef0"
       d="m 230.27023,128.65683 c 5.55187,-1.64872 11.98416,-6.87124 11.98416,-9.73021 0,-1.19153 -1.35528,-0.82858 -6.16116,1.65 -5.8885,3.03694 -6.67794,3.17756 -17.83884,3.17756 -11.1609,0 -11.95034,-0.14062 -17.83884,-3.17756 -5.15301,-2.65761 -6.15596,-2.90305 -6.12936,-1.5 0.15882,8.37708 21.18513,13.97502 35.98404,9.58021 z"
       id="path41" /><path
       style="fill:#ebeef0"
       d="m 350.27023,136.65683 c 5.55187,-1.64872 11.98416,-6.87124 11.98416,-9.73021 0,-1.19153 -1.35528,-0.82858 -6.16116,1.65 -5.8885,3.03694 -6.67794,3.17756 -17.83884,3.17756 -11.1609,0 -11.95034,-0.14062 -17.83884,-3.17756 -5.15301,-2.65761 -6.15596,-2.90305 -6.12936,-1.5 0.15882,8.37708 21.18513,13.97502 35.98404,9.58021 z"
       id="path40" /><path
       style="fill:#ebeef0"
       d="m 174.27023,160.65683 c 5.55187,-1.64872 11.98416,-6.87124 11.98416,-9.73021 0,-1.19153 -1.35528,-0.82858 -6.16116,1.65 -5.8885,3.03694 -6.67794,3.17756 -17.83884,3.17756 -11.1609,0 -11.95034,-0.14062 -17.83884,-3.17756 -5.15301,-2.65761 -6.15596,-2.90305 -6.12936,-1.5 0.15882,8.37708 21.18513,13.97502 35.98404,9.58021 z"
       id="path39" /><path
       style="fill:#ebeef0"
       d="m 294.27023,168.65683 c 5.55187,-1.64872 11.98416,-6.87124 11.98416,-9.73021 0,-1.19153 -1.35528,-0.82858 -6.16116,1.65 -5.8885,3.03694 -6.67794,3.17756 -17.83884,3.17756 -11.1609,0 -11.95034,-0.14062 -17.83884,-3.17756 -5.15301,-2.65761 -6.15596,-2.90305 -6.12936,-1.5 0.15882,8.37708 21.18513,13.97502 35.98404,9.58021 z"
       id="path38" /><path
       style="fill:#ebeef0"
       d="m 238.27023,200.65683 c 5.55187,-1.64872 11.98416,-6.87124 11.98416,-9.73021 0,-1.19153 -1.35528,-0.82858 -6.16116,1.65 -5.8885,3.03694 -6.67794,3.17756 -17.83884,3.17756 -11.1609,0 -11.95034,-0.14062 -17.83884,-3.17756 -5.15301,-2.65761 -6.15596,-2.90305 -6.12936,-1.5 0.15882,8.37708 21.18513,13.97502 35.98404,9.58021 z"
       id="path37" /><path
       style="fill:#ebeef0"
       d="m 239.86872,486.16545 c -8.70218,-0.9277 -15.56324,-2.90981 -23.04308,-6.65697 -2.71081,-1.35804 -6.53581,-3.04011 -8.5,-3.73795 -1.96419,-0.69784 -32.59625,-18.00715 -68.07125,-38.46515 C 80.461232,402.82341 75.220183,399.58527 68.433953,392.93161 56.502369,381.23311 48.01938,367.17283 42.987038,350.75418 c -2.100727,-6.85389 -2.153026,-8.61768 -2.505562,-84.5 -0.243485,-52.40933 -0.0024,-80.57563 0.744512,-87 1.360913,-11.70478 5.273081,-23.33012 11.324883,-33.65286 4.685437,-7.99208 17.16992,-23.59467 21.703516,-27.12415 1.375,-1.07045 20.275,-11.97145 42.000003,-24.224422 21.725,-12.252978 50.3,-28.447767 63.5,-35.98842 45.05807,-25.739948 46.99542,-26.562553 65.18819,-27.679166 11.25487,-0.690788 22.62387,0.698942 30.84604,3.770574 5.60895,2.095391 21.21159,10.502827 47.46577,25.576805 9.625,5.526244 35.275,20.079927 57,32.341519 21.725,12.26159 41.13283,23.37184 43.12851,24.68944 1.99567,1.31761 6.53278,5.63453 10.08246,9.59317 16.29716,18.17474 23.88884,34.62462 25.76577,55.83 0.55781,6.30214 1.00997,43.07735 1.01471,82.52954 0.009,75.65342 -0.1164,77.9888 -4.93042,91.75693 -2.76931,7.92021 -9.06669,19.44073 -14.45326,26.44098 -10.22888,13.29321 -13.40352,15.43139 -79.25761,53.38175 -62.13544,35.80738 -80.93137,45.58552 -92.59981,48.17288 -8.65804,1.91984 -19.79857,2.49212 -29.13602,1.4967 z"
       id="path15" /><path
       style="fill:#d2d6d9"
       d="m 117.6655,297.17745 c 3.80441,-4.52129 3.29927,-6.53151 -0.85224,-3.39147 -4.43948,3.35786 -12.42445,0.77972 -18.091893,-5.84141 -4.37072,-5.1062 -4.49416,-3.44499 -0.21698,2.91998 6.367333,9.47537 14.300723,12.08914 19.161113,6.3129 z"
       id="path45" /><path
       style="fill:#d2d6d9"
       d="m 181.6655,401.17745 c 3.80441,-4.52129 3.29927,-6.53151 -0.85224,-3.39147 -4.43948,3.35786 -12.42445,0.77972 -18.09189,-5.84141 -4.37072,-5.1062 -4.49416,-3.44499 -0.21698,2.91998 6.36733,9.47537 14.30072,12.08914 19.16111,6.3129 z"
       id="path44" /><path
       style="fill:url(#linearGradient62)"
       d="m 234.75439,484.1866 c -4.5856,-0.92038 -11.74387,-3.44049 -22.5,-7.92126 -4.125,-1.71839 -36.525,-19.86138 -72,-40.31775 C 80.726479,401.6213 75.208387,398.21457 68.671453,391.75418 53.33348,376.5958 44.228098,358.03105 42.166843,337.71454 c -0.628833,-6.19801 -0.888147,-38.7229 -0.677687,-85 0.335922,-73.86414 0.373406,-75.07735 2.563224,-82.96036 3.74472,-13.48042 14.020444,-32.55806 20.833395,-38.67874 1.804584,-1.62122 1.868612,-1.46436 1.868612,4.57784 0,5.30041 0.424686,6.81338 2.778871,9.89987 1.528378,2.00381 4.242593,4.75972 6.031587,6.12426 3.984127,3.03884 135.782245,77.69555 144.277105,81.7254 15.38039,7.29625 40.98289,7.88496 57.69356,1.32661 3.93063,-1.54263 129.82362,-72.36168 142.34592,-80.07438 10.29694,-6.34206 15.43812,-14.27473 13.8722,-21.40432 -1.05903,-4.82173 1.07179,-3.59095 6.49829,3.75346 5.88538,7.96546 11.98915,20.07294 14.87398,29.50411 3.81911,12.48558 4.27666,24.42587 3.918,102.24589 -0.30766,66.75482 -0.51128,74.57317 -2.0797,79.85416 -5.19071,17.47748 -13.72875,32.0107 -25.64125,43.64584 -7.22496,7.05674 -11.41959,9.65164 -70.97287,43.9056 -59.93273,34.47221 -74.42031,42.03184 -89.41002,46.65424 -5.83293,1.79871 -29.57554,2.6993 -36.18567,1.37258 z"
       id="path14" /><path
       style="fill:#bac0c4"
       d="m 117.13752,300.62349 c 2.56149,-1.79414 5.11687,-7.05453 5.11687,-10.53336 0,-2.09504 -0.20336,-2.03118 -3.40078,1.06788 -7.63712,7.40219 -16.94719,2.66923 -25.589145,-13.00876 -3.815694,-6.92232 -4.085264,-3.60188 -0.445676,5.48965 5.676948,14.18076 17.015631,22.09987 24.318731,16.98459 z"
       id="path30" /><path
       style="fill:#bac0c4"
       d="m 181.13752,404.62349 c 2.56149,-1.79414 5.11687,-7.05453 5.11687,-10.53336 0,-2.09504 -0.20336,-2.03118 -3.40078,1.06788 -7.62884,7.39416 -16.7095,2.79359 -25.67682,-13.00876 l -3.06153,-5.39507 0.63823,4 c 1.4057,8.81001 8.1875,19.50789 15.00087,23.66298 3.71974,2.26846 8.32001,2.35184 11.38316,0.20633 z"
       id="path29" /><path
       style="fill:url(#linearGradient60)"
       d="m 210.67627,474.25773 c -2.79297,-1.1083 -12.70984,-6.39999 -22.03751,-11.75932 -105.854418,-60.82 -110.691825,-63.70675 -117.668045,-70.219 -8.767734,-8.18463 -14.570092,-16.30786 -20.124249,-28.17371 -8.251609,-17.62867 -7.863952,-13.18047 -8.338197,-95.67723 -0.468322,-81.46642 -0.163891,-87.53784 4.747205,-94.67587 3.6471,-5.30088 6.781576,-7.34868 13.36053,-8.72863 9.240159,-1.93814 12.748354,-0.24484 80.138386,38.6805 34.1,19.69659 63.84463,37.0779 66.09917,38.62512 6.40161,4.39321 17.4208,16.8524 22.74593,25.71838 5.41837,9.02123 10.02833,21.42594 11.59715,31.20621 1.3899,8.66486 1.43369,148.71997 0.0488,156.11351 -2.37064,12.65631 -9.12477,19.71739 -19.58647,20.47662 -4.35733,0.31622 -7.23528,-0.0995 -10.98271,-1.58658 z"
       id="path28" /><path
       style="fill:url(#linearGradient58);stroke:none"
       d="m 271.69858,475.36805 c -5.70871,-2.59298 -10.87574,-9.02723 -12.82329,-15.96823 -1.43033,-5.09767 -1.61886,-14.70431 -1.60354,-81.71124 0.014,-61.4287 0.28633,-77.20338 1.42536,-82.57726 4.45228,-21.00574 18.85582,-43.12338 35.26455,-54.15118 8.81518,-5.92441 122.09747,-71.25354 129.29273,-74.56224 15.27355,-7.02346 30.80131,-0.0517 33.97922,15.25617 0.75056,3.61545 0.98839,29.70755 0.76271,83.67688 -0.36621,87.57564 0.0788,81.88014 -7.69926,98.54206 -5.24491,11.2355 -11.13535,19.66019 -19.49417,27.88117 -6.55709,6.44896 -12.1921,9.92087 -71.58294,44.10452 -35.45606,20.40749 -67.06994,38.06999 -70.25307,39.25 -7.05337,2.61474 -11.92168,2.68786 -17.2683,0.25935 z"
       id="path13" /><path
       style="fill:#4f4f4f;fill-opacity:1;stroke-width:0.999998"
       d="m 129.925,399.10699 c -14.79635,-11.25095 -23.58986,-22.87537 -25.11235,-33.19145 -0.19528,-1.32309 -0.30562,-8.77558 -0.32122,-21.68427 -0.0267,-22.05154 -0.015,-22.21305 1.8399,-25.41129 1.92811,-3.32482 4.98171,-4.78069 9.08702,-4.33344 l 2.06811,0.22595 19.78139,11.2424 c 22.10791,12.56549 20.93421,12.00411 25.20367,12.04992 4.99887,0.0536 8.84003,-2.89232 10.81845,-8.29262 0.57769,-1.57855 0.61418,-2.2168 0.70814,-12.4498 l 0.10016,-10.77652 6.91362,3.90871 c 9.68404,5.47561 11.84727,7.33058 15.4221,13.22393 3.08178,5.08118 5.16814,10.99394 6.78706,19.23842 2.7215,13.85675 3.2363,24.03152 1.64377,32.51204 -1.21904,6.48735 -4.48329,13.96157 -7.05882,16.15896 -1.49546,1.27496 -3.87687,1.89069 -5.99196,1.54905 -1.42947,-0.23139 -2.37209,-0.75162 -27.82687,-15.36387 l -26.34755,-15.12549 0.006,2.33094 0.006,2.33094 16.46364,9.50468 16.46381,9.50546 -0.052,9.08538 c -0.0489,8.50382 -0.0908,9.18944 -0.64679,10.60804 -2.52816,6.45085 -9.80672,7.35931 -22.54257,2.81079 -3.97821,-1.42093 -13.59827,-6.756 -17.41373,-9.65686 z m 28.37948,3.6548 c 3.87897,0.35562 5.08715,-4.55162 2.39515,-9.72286 -1.45369,-2.79294 -2.7656,-4.19756 -4.9807,-5.33197 -2.34763,-1.20196 -3.77927,-0.95427 -4.86578,0.84091 -1.26532,2.09024 -0.90442,5.30557 0.97361,8.66998 1.66901,2.98938 4.43407,5.35604 6.47772,5.54394 z m -72.877906,-70.8064 c -5.788475,-4.79543 -10.239445,-12.55384 -12.82439,-22.35203 -0.795098,-3.01422 -2.123005,-10.62356 -2.771972,-15.88409 -0.616822,-5.00042 -0.618142,-13.7892 -0.0031,-18.00462 1.092949,-7.49131 2.258419,-11.80378 3.94808,-14.61302 2.625305,-4.3645 6.761475,-5.85375 12.597104,-4.53687 l 2.014649,0.45423 24.383135,13.97865 24.38302,13.97866 -0.006,-2.15468 -0.006,-2.15391 -16.31985,-9.50235 -16.31977,-9.50157 -0.009,-9.89835 c -0.01,-10.76022 0.11499,-11.8791 1.602,-14.40726 2.14886,-3.65404 7.38268,-3.47467 17.63999,0.60253 3.34593,1.32931 4.85506,2.12052 13.03812,6.83287 13.00785,7.49054 18.17948,11.3084 23.35087,17.24058 3.28211,3.76351 6.62711,9.34706 8.16373,13.62536 1.8573,5.1728 1.84332,4.95384 1.85497,28.32536 0.0101,20.73776 0.004,20.98934 -0.57846,22.64553 -1.69347,4.81873 -5.45077,7.16209 -10.27959,6.41125 l -1.98286,-0.30903 -19.64287,-11.16941 c -20.89989,-11.88454 -19.99632,-11.4272 -23.81116,-12.06313 -4.57251,-0.76248 -9.02839,1.59098 -11.41407,6.03001 -1.57816,2.93658 -1.73897,4.39323 -1.72965,15.67678 l 0.008,10.04277 -6.806009,-3.95375 c -4.629487,-2.69044 -7.34112,-4.39788 -8.479344,-5.34051 z M 121.57003,260.8221 c 2.95351,0.002 4.04219,-3.68742 2.4169,-8.18702 -2.90475,-8.04182 -11.13292,-10.26095 -11.08968,-2.99016 0.0311,5.25821 4.62097,11.17407 8.67278,11.17718 z"
       id="path62" /><path
       style="fill:#323232;fill-opacity:1;stroke-width:0.999998"
       d="m 344.03068,415.65075 -0.03,-1.93967 1.78489,-1.22782 c 2.93119,-2.0152 3.69241,-2.81979 4.23528,-4.47306 0.5481,-1.66675 0.55783,2.22382 -0.1301,-48.69822 -0.45315,-33.49562 -0.67074,-47.68948 -0.75225,-48.45444 -0.34247,-3.32527 -1.27716,-3.58025 -5.08547,-1.37662 l -1.65404,0.95713 -0.0374,-2.40776 -0.0373,-2.41076 2.17222,-1.2525 2.16848,-1.25024 -0.0815,-1.52766 c -0.26396,-4.97106 -0.68644,-10.34068 -1.05284,-13.36386 -1.04312,-8.61412 -2.77267,-11.81749 -6.36637,-11.7487 -1.94865,0.0374 -3.98479,0.87338 -9.01567,3.70512 -3.69914,2.0825 -3.90851,2.21783 -4.23379,2.74649 -0.4322,0.70365 -0.67372,1.56805 -0.77093,2.76147 -0.0516,0.63484 0.23704,16.92166 0.88833,50.1982 0.90105,46.03322 0.95265,48.27349 1.1164,48.84627 0.24975,0.87337 0.77393,1.50971 1.30109,1.57851 1.04461,0.13758 1.81032,-0.166 4.92769,-1.94716 l 2.97606,-1.70113 0.059,2.02641 0.059,2.02416 -4.61812,2.67995 c -2.54759,1.47756 -5.96333,3.49799 -7.58671,4.48728 -1.62636,0.99077 -5.05856,3.14206 -7.63008,4.78338 l -4.69066,2.99325 -0.0209,-2.06828 -0.0209,-2.07127 3.07027,-1.97333 c 3.34171,-2.14904 4.21733,-2.87885 5.14455,-4.28687 0.57353,-0.87114 1.03564,-2.11391 1.18444,-3.19067 0.0837,-0.59894 -0.0748,-9.71482 -0.85169,-49.00479 -0.65877,-33.3229 -1.01022,-49.54915 -1.08573,-50.11446 -0.14358,-1.07153 -0.41426,-1.63832 -0.88385,-1.85143 -0.36939,-0.16825 -0.45538,-0.12488 -5.19764,2.63284 -4.94564,2.87511 -5.95138,3.56678 -7.70261,5.29932 -3.88309,3.84196 -5.72106,8.74349 -6.55706,17.48773 -0.36415,3.80905 -0.6767,11.31051 -0.73129,17.52884 l -0.0164,1.89106 -0.81056,0.4681 c -0.71112,0.41052 -0.81282,0.42921 -0.82179,0.15254 -0.0195,-0.61016 0.46062,-37.781 0.49277,-38.21395 l 0.0329,-0.43744 24.84636,-13.94037 24.34162,-13.65697 0.0659,0.92197 c 0.0755,1.06182 1.7849,34.08112 1.79237,34.62549 l 0.006,0.36117 17.88552,-10.26817 17.61708,-10.11486 1.02218,16.78409 c 0.55857,9.17344 1.04087,17.08392 1.07377,17.61558 l 0.0606,0.96684 -0.7642,0.4524 c -0.55484,0.32901 -0.76495,0.39331 -0.76645,0.23629 -0.0127,-1.26595 -0.61017,-8.77564 -0.89282,-11.23202 -1.24651,-10.80429 -3.54958,-14.69186 -8.36363,-14.04954 -2.15651,0.28714 -2.23503,0.32528 -10.57399,5.07725 -5.27838,3.00746 -7.99348,4.61812 -8.32847,4.93966 -0.76496,0.73429 -1.07826,1.32577 -1.31605,2.4803 l -0.20713,1.00423 0.2647,22.41317 0.26172,22.20156 4.84919,-2.98429 c 4.00422,-2.46534 4.98154,-3.11514 5.71732,-3.80232 1.78265,-1.66376 2.88782,-3.36265 3.70362,-5.69115 1.03191,-2.94467 1.40129,-6.18542 1.43046,-12.56301 l 0.0172,-3.65203 0.67074,-0.39631 0.67074,-0.39631 0.19666,21.38724 0.19515,21.19434 -0.65727,0.3492 -0.65653,0.34995 -0.0868,-3.40079 c -0.1301,-5.13707 -0.34173,-7.23601 -0.94516,-9.35215 -0.47033,-1.64805 -1.1149,-2.55358 -2.08623,-2.93045 -1.60991,-0.62363 -2.36141,-0.33349 -8.20586,3.17272 l -4.75945,2.85568 0.33873,24.40369 c 0.31705,22.82443 0.34472,24.18085 0.49801,24.7312 0.23928,0.86141 0.48454,1.13509 1.0162,1.13285 0.43519,-0.002 1.13285,-0.41202 8.11761,-4.76095 6.68717,-4.16499 7.73551,-4.85217 8.79134,-5.76966 3.70737,-3.22058 6.0598,-6.55631 7.87236,-11.16023 2.12586,-5.40028 3.35891,-12.64601 4.2076,-24.73869 0.0651,-0.93469 0.13834,-1.8978 0.16152,-2.13932 l 0.0434,-0.43968 -2.34944,1.53888 -2.35392,1.54262 -0.0142,-1.92697 -0.0142,-1.92771 1.20315,-0.93543 c 2.41674,-1.87837 4.51343,-4.68394 6.21383,-8.31502 0.62587,-1.33699 1.52691,-3.68195 1.99277,-5.18792 0.3148,-1.01695 13.52237,-49.19772 13.9456,-50.87418 0.10021,-0.3963 -0.47707,-1.87238 -7.56802,-19.33916 -4.2764,-10.5336 -8.00096,-19.61807 -8.24099,-20.09962 -0.83449,-1.67197 -1.8679,-2.34121 -3.21384,-2.08025 -0.41576,0.0807 -1.47906,0.50399 -2.36366,0.94068 l -1.61065,0.79561 -0.015,-2.1154 -0.015,-2.11764 0.28041,-0.0269 c 0.37462,-0.0359 16.141,-8.88706 16.59938,-9.31851 l 0.35967,-0.33799 0.008,2.11989 0.008,2.11763 -0.57128,0.4509 c -1.24277,0.97956 -2.28439,2.68443 -2.69566,4.41399 -0.28638,1.20538 -0.27741,2.08025 0.0306,3.00448 0.16675,0.4995 11.89078,29.62002 12.11286,30.08662 0.0486,0.10242 10.59716,-38.46222 10.87907,-39.77153 0.30957,-1.44391 0.33275,-1.65029 0.33051,-2.9813 -0.003,-1.90976 -0.18993,-2.9282 -0.70364,-3.83448 -0.45763,-0.80607 -1.06405,-1.12835 -1.89032,-1.00273 l -0.52119,0.0793 7.5e-4,-2.10418 v -2.10567 l 0.35444,-0.0643 c 0.45239,-0.0815 13.45209,-7.36836 13.81101,-7.74 l 0.26844,-0.27816 -0.007,2.08773 -0.007,2.08548 -0.82178,0.58325 c -3.57277,2.53563 -6.24449,6.738 -8.19164,12.88903 -0.45015,1.42223 -12.26316,44.10102 -12.34915,44.61622 -0.0351,0.20938 16.46778,41.1788 17.30601,42.96967 0.68644,1.46486 1.4454,2.06157 2.46086,1.93519 0.62886,-0.0785 2.30831,-0.80533 3.41948,-1.4813 l 0.83299,-0.50548 -0.008,2.01744 -0.008,2.01669 -0.26096,0.0381 c -0.27368,0.0411 -12.90922,7.6929 -14.94161,9.04932 l -1.18145,0.78813 -0.0217,-1.91948 -0.0225,-1.92173 0.77317,-0.74327 c 1.33773,-1.28538 2.23728,-3.00597 2.5461,-4.86937 0.12786,-0.77019 0.13011,-0.90703 0.0195,-1.4813 -0.14058,-0.73355 -13.90448,-34.74064 -14.00842,-34.60454 -0.0994,0.1301 -12.69761,46.19921 -12.88379,47.11595 -0.10617,0.52119 -0.16601,1.27044 -0.18545,2.33001 -0.0239,1.31455 0.002,1.70487 0.16301,2.46608 0.22657,1.0678 0.75075,1.96136 1.31903,2.24925 0.35743,0.18096 0.60569,0.19068 1.37737,0.0546 l 0.22882,-0.0404 0.008,1.92696 0.008,1.92622 -4.14703,2.4474 -4.16201,2.45636 -0.0448,0.52118 c -0.0254,0.28714 -0.5324,8.53113 -1.12537,18.28932 l -1.07378,17.6567 -20.56845,12.84044 -20.93562,13.06924 z"
       id="path63" /><path
       style="fill:#323232;fill-opacity:1;stroke-width:0.999998"
       d="m 344.03068,415.65075 -0.03,-1.93967 1.78489,-1.22782 c 2.93119,-2.0152 3.69241,-2.81979 4.23528,-4.47306 0.5481,-1.66675 0.55783,2.22382 -0.1301,-48.69822 -0.45315,-33.49562 -0.67074,-47.68948 -0.75225,-48.45444 -0.34247,-3.32527 -1.27716,-3.58025 -5.08547,-1.37662 l -1.65404,0.95713 -0.0374,-2.40776 -0.0373,-2.41076 2.17222,-1.2525 2.16848,-1.25024 -0.0815,-1.52766 c -0.26396,-4.97106 -0.68644,-10.34068 -1.05284,-13.36386 -1.04312,-8.61412 -2.77267,-11.81749 -6.36637,-11.7487 -1.94865,0.0374 -3.98479,0.87338 -9.01567,3.70512 -3.69914,2.0825 -3.90851,2.21783 -4.23379,2.74649 -0.4322,0.70365 -0.67372,1.56805 -0.77093,2.76147 -0.0516,0.63484 0.23704,16.92166 0.88833,50.1982 0.90105,46.03322 0.95265,48.27349 1.1164,48.84627 0.24975,0.87337 0.77393,1.50971 1.30109,1.57851 1.04461,0.13758 1.81032,-0.166 4.92769,-1.94716 l 2.97606,-1.70113 0.059,2.02641 0.059,2.02416 -4.61812,2.67995 c -2.54759,1.47756 -5.96333,3.49799 -7.58671,4.48728 -1.62636,0.99077 -5.05856,3.14206 -7.63008,4.78338 l -4.69066,2.99325 -0.0209,-2.06828 -0.0209,-2.07127 3.07027,-1.97333 c 3.34171,-2.14904 4.21733,-2.87885 5.14455,-4.28687 0.57353,-0.87114 1.03564,-2.11391 1.18444,-3.19067 0.0837,-0.59894 -0.0748,-9.71482 -0.85169,-49.00479 -0.65877,-33.3229 -1.01022,-49.54915 -1.08573,-50.11446 -0.14358,-1.07153 -0.41426,-1.63832 -0.88385,-1.85143 -0.36939,-0.16825 -0.45538,-0.12488 -5.19764,2.63284 -4.94564,2.87511 -5.95138,3.56678 -7.70261,5.29932 -3.88309,3.84196 -5.72106,8.74349 -6.55706,17.48773 -0.36415,3.80905 -0.6767,11.31051 -0.73129,17.52884 l -0.0164,1.89106 -0.81056,0.4681 c -0.71112,0.41052 -0.81282,0.42921 -0.82179,0.15254 -0.0195,-0.61016 0.46062,-37.781 0.49277,-38.21395 l 0.0329,-0.43744 24.84636,-13.94037 24.34162,-13.65697 0.0659,0.92197 c 0.0755,1.06182 1.7849,34.08112 1.79237,34.62549 l 0.006,0.36117 17.88552,-10.26817 17.61708,-10.11486 1.02218,16.78409 c 0.55857,9.17344 1.04087,17.08392 1.07377,17.61558 l 0.0606,0.96684 -0.7642,0.4524 c -0.55484,0.32901 -0.76495,0.39331 -0.76645,0.23629 -0.0127,-1.26595 -0.61017,-8.77564 -0.89282,-11.23202 -1.24651,-10.80429 -3.54958,-14.69186 -8.36363,-14.04954 -2.15651,0.28714 -2.23503,0.32528 -10.57399,5.07725 -5.27838,3.00746 -7.99348,4.61812 -8.32847,4.93966 -0.76496,0.73429 -1.07826,1.32577 -1.31605,2.4803 l -0.20713,1.00423 0.2647,22.41317 0.26172,22.20156 4.84919,-2.98429 c 4.00422,-2.46534 4.98154,-3.11514 5.71732,-3.80232 1.78265,-1.66376 2.88782,-3.36265 3.70362,-5.69115 1.03191,-2.94467 1.40129,-6.18542 1.43046,-12.56301 l 0.0172,-3.65203 0.67074,-0.39631 0.67074,-0.39631 0.19666,21.38724 0.19515,21.19434 -0.65727,0.3492 -0.65653,0.34995 -0.0868,-3.40079 c -0.1301,-5.13707 -0.34173,-7.23601 -0.94516,-9.35215 -0.47033,-1.64805 -1.1149,-2.55358 -2.08623,-2.93045 -1.60991,-0.62363 -2.36141,-0.33349 -8.20586,3.17272 l -4.75945,2.85568 0.33873,24.40369 c 0.31705,22.82443 0.34472,24.18085 0.49801,24.7312 0.23928,0.86141 0.48454,1.13509 1.0162,1.13285 0.43519,-0.002 1.13285,-0.41202 8.11761,-4.76095 6.68717,-4.16499 7.73551,-4.85217 8.79134,-5.76966 3.70737,-3.22058 6.0598,-6.55631 7.87236,-11.16023 2.12586,-5.40028 3.35891,-12.64601 4.2076,-24.73869 0.0651,-0.93469 0.13834,-1.8978 0.16152,-2.13932 l 0.0434,-0.43968 -2.34944,1.53888 -2.35392,1.54262 -0.0142,-1.92697 -0.0142,-1.92771 1.20315,-0.93543 c 2.41674,-1.87837 4.51343,-4.68394 6.21383,-8.31502 0.62587,-1.33699 1.52691,-3.68195 1.99277,-5.18792 0.3148,-1.01695 13.52237,-49.19772 13.9456,-50.87418 0.10021,-0.3963 -0.47707,-1.87238 -7.56802,-19.33916 -4.2764,-10.5336 -8.00096,-19.61807 -8.24099,-20.09962 -0.83449,-1.67197 -1.8679,-2.34121 -3.21384,-2.08025 -0.41576,0.0807 -1.47906,0.50399 -2.36366,0.94068 l -1.61065,0.79561 -0.015,-2.1154 -0.015,-2.11764 0.28041,-0.0269 c 0.37462,-0.0359 16.141,-8.88706 16.59938,-9.31851 l 0.35967,-0.33799 0.008,2.11989 0.008,2.11763 -0.57128,0.4509 c -1.24277,0.97956 -2.28439,2.68443 -2.69566,4.41399 -0.28638,1.20538 -0.27741,2.08025 0.0306,3.00448 0.16675,0.4995 11.89078,29.62002 12.11286,30.08662 0.0486,0.10242 10.59716,-38.46222 10.87907,-39.77153 0.30957,-1.44391 0.33275,-1.65029 0.33051,-2.9813 -0.003,-1.90976 -0.18993,-2.9282 -0.70364,-3.83448 -0.45763,-0.80607 -1.06405,-1.12835 -1.89032,-1.00273 l -0.52119,0.0793 7.5e-4,-2.10418 v -2.10567 l 0.35444,-0.0643 c 0.45239,-0.0815 13.45209,-7.36836 13.81101,-7.74 l 0.26844,-0.27816 -0.007,2.08773 -0.007,2.08548 -0.82178,0.58325 c -3.57277,2.53563 -6.24449,6.738 -8.19164,12.88903 -0.45015,1.42223 -12.26316,44.10102 -12.34915,44.61622 -0.0351,0.20938 16.46778,41.1788 17.30601,42.96967 0.68644,1.46486 1.4454,2.06157 2.46086,1.93519 0.62886,-0.0785 2.30831,-0.80533 3.41948,-1.4813 l 0.83299,-0.50548 -0.008,2.01744 -0.008,2.01669 -0.26096,0.0381 c -0.27368,0.0411 -12.90922,7.6929 -14.94161,9.04932 l -1.18145,0.78813 -0.0217,-1.91948 -0.0225,-1.92173 0.77317,-0.74327 c 1.33773,-1.28538 2.23728,-3.00597 2.5461,-4.86937 0.12786,-0.77019 0.13011,-0.90703 0.0195,-1.4813 -0.14058,-0.73355 -13.90448,-34.74064 -14.00842,-34.60454 -0.0994,0.1301 -12.69761,46.19921 -12.88379,47.11595 -0.10617,0.52119 -0.16601,1.27044 -0.18545,2.33001 -0.0239,1.31455 0.002,1.70487 0.16301,2.46608 0.22657,1.0678 0.75075,1.96136 1.31903,2.24925 0.35743,0.18096 0.60569,0.19068 1.37737,0.0546 l 0.22882,-0.0404 0.008,1.92696 0.008,1.92622 -4.14703,2.4474 -4.16201,2.45636 -0.0448,0.52118 c -0.0254,0.28714 -0.5324,8.53113 -1.12537,18.28932 l -1.07378,17.6567 -20.56845,12.84044 -20.93562,13.06924 z"
       id="path26" /></g><g
     id="g6"
     style="fill:#717171;fill-opacity:1;stroke-width:1.46177"
     transform="matrix(0.6841005,0,0,-0.6841005,161.02032,135.01974)"><path
       id="path1"
       style="opacity:0.965934;fill:#717171;fill-opacity:1;stroke-width:8.83967;stroke-linecap:round;stroke-linejoin:round;paint-order:fill markers stroke"
       d="m 163.137,62.9236 c -14.9,-8.4839 -38.886,-8.5131 -53.589,-0.1349 -7.041,4.0115 -10.9902,9.4624 -10.9909,15.1613 -8e-4,5.7011 3.9509,11.1969 10.9979,15.2845 7.066,4.0978 16.673,6.4505 26.72,6.533 10.079,0.0828 19.769,-2.1254 26.927,-6.1449 14.949,-8.3951 14.913,-22.1711 -0.065,-30.699 z" /><path
       id="path4"
       style="opacity:0.965934;fill:#717171;fill-opacity:1;stroke-width:8.83967;stroke-linecap:round;stroke-linejoin:round;paint-order:fill markers stroke"
       d="m 296.547,-12.5456 c -15.517,-8.4371 -40.427,-8.1834 -55.657,0.4948 -7.292,4.15494 -11.368,9.73446 -11.342,15.5192 0.025,5.78707 4.154,11.3195 11.491,15.3864 7.356,4.0771 17.344,6.3532 27.78,6.3195 10.468,-0.0338 20.523,-2.3889 27.939,-6.5535 15.489,-8.69862 15.387,-22.68488 -0.211,-31.1664 z" /><path
       id="path5"
       style="opacity:0.965934;fill:#717171;fill-opacity:1;stroke-width:8.83967;stroke-linecap:round;stroke-linejoin:round;paint-order:fill markers stroke"
       d="m 162.824,-85.2574 c -7.128,-3.8757 -16.763,-5.9293 -26.774,-5.717 -9.98,0.2116 -19.522,2.6583 -26.539,6.7962 -7.005,4.13 -10.9343,9.6148 -10.935,15.2556 -7e-4,5.6431 3.93,10.9935 10.942,14.8798 7.029,3.8959 16.587,6.0069 26.583,5.8609 10.026,-0.1464 19.666,-2.5516 26.787,-6.6921 7.134,-4.1485 11.14,-9.6907 11.125,-15.3996 -0.014,-5.7065 -4.044,-11.0984 -11.189,-14.9838 z" /><path
       id="path6"
       style="opacity:0.965934;fill:#717171;fill-opacity:1;stroke-width:8.83967;stroke-linecap:round;stroke-linejoin:round;paint-order:fill markers stroke"
       d="m 34.6771,-10.2175 c -6.8502,-3.9003 -16.1237,-6.0337 -25.77047,-5.9386 -9.617616,0.0949 -18.82267,2.3973 -25.60303,6.39534 -6.7677,3.99057 -10.5783,9.351384 -10.6034,14.9106 -0.0251,5.56136 3.7402,10.87876 10.4803,14.78796 6.7564,3.9186 15.957375,6.1068 25.5889,6.0758 9.6608,-0.0312 18.9593,-2.2924 25.8371,-6.2918 6.8908,-4.007 10.7739,-9.4226 10.7851,-15.04783 0.0111,-5.623046 -3.8477,-10.98172 -10.7145,-14.89147 z" /></g><path
     d="m 261.50511,80.584632 2.69398,1.52096 -11.60234,6.648978 -2.67962,-1.520002 1.21086,-0.694568 c -2.12687,-0.03256 -3.82071,-0.407108 -5.08287,-1.123293 -1.59259,-0.903628 -2.33278,-1.981702 -2.22196,-3.234769 0.14298,-1.262439 1.09388,-2.400987 2.85475,-3.416056 1.73078,-0.99776 3.69209,-1.537242 5.88395,-1.617829 2.19459,-0.08066 4.07313,0.31968 5.63494,1.201554 1.34836,0.761472 2.00236,1.764432 1.96063,3.008537 z M 249.402,80.307776 c -1.10687,0.637308 -1.71162,1.323598 -1.81492,2.059211 -0.0951,0.749022 0.31879,1.385235 1.24233,1.908846 0.98715,0.559663 2.1255,0.816679 3.41503,0.770776 1.31415,-0.05958 2.51475,-0.400883 3.6011,-1.024304 1.08704,-0.623763 1.67879,-1.311078 1.77456,-2.06181 0.0807,-0.741702 -0.36668,-1.388109 -1.34152,-1.939083 -0.91875,-0.519369 -2.03588,-0.752853 -3.35073,-0.700587 -1.31415,0.0613 -2.48944,0.390347 -3.52585,0.986951 z"
     id="text7"
     style="font-weight:500;font-size:65.0198px;line-height:1;font-family:Futura;-inkscape-font-specification:'Futura Medium';text-align:center;letter-spacing:0.650198px;word-spacing:0px;text-anchor:middle;opacity:0.965934;fill:#ffffff;stroke-width:6.04724;stroke-linecap:round;stroke-linejoin:round;paint-order:fill markers stroke"
     aria-label="a" /><path
     d="m 353.89425,125.31194 -10.27246,5.6462 c 2.26301,-0.009 4.09708,0.3831 5.50154,1.17677 1.61927,0.91487 2.35878,2.01032 2.21922,3.28571 -0.13135,1.27063 -1.09935,2.39924 -2.90195,3.38535 -1.8587,1.01685 -3.93563,1.54987 -6.22874,1.59973 -2.27463,0.0499 -4.22911,-0.38937 -5.86342,-1.31744 -1.37983,-0.78376 -2.07898,-1.77684 -2.09745,-2.97967 l -1.25601,0.69032 -2.75214,-1.56259 20.87396,-11.48891 z m -8.40897,11.95816 c 1.15613,-0.63325 1.78619,-1.32573 1.88949,-2.07722 0.11151,-0.76529 -0.30853,-1.41727 -1.2608,-1.95571 -1.01726,-0.57538 -2.20417,-0.84673 -3.56143,-0.81423 -1.33946,0.0326 -2.577,0.36125 -3.71329,0.98574 -1.16845,0.64224 -1.79098,1.33137 -1.86897,2.06763 -0.0944,0.74522 0.36531,1.40526 1.37915,1.98035 0.95706,0.54283 2.10908,0.79665 3.45539,0.7613 1.36478,-0.0352 2.59138,-0.35112 3.68046,-0.94786 z"
     id="text8"
     style="font-weight:500;font-size:65.0198px;line-height:1;font-family:Futura;-inkscape-font-specification:'Futura Medium';text-align:center;letter-spacing:0.650198px;word-spacing:0px;text-anchor:middle;opacity:0.965934;fill:#ffffff;stroke-width:6.04724;stroke-linecap:round;stroke-linejoin:round;paint-order:fill markers stroke"
     aria-label="b" /><path
     d="m 175.45108,131.43752 -3.41038,1.95581 c 0.12711,-0.75321 0.0911,-1.34222 -0.10809,-1.76693 -0.18388,-0.42458 -0.58463,-0.81745 -1.20196,-1.17854 -0.96766,-0.56597 -2.10881,-0.84186 -3.42312,-0.8278 -1.31355,0.014 -2.47741,0.31304 -3.49177,0.89676 -1.03652,0.59647 -1.57979,1.26627 -1.63023,2.00957 -0.0428,0.74768 0.41784,1.40426 1.3823,1.96997 0.61532,0.36092 1.29107,0.60353 2.02731,0.7278 0.7137,0.11974 1.75001,0.14722 3.10941,0.0824 l -3.37578,1.93595 c -1.57823,-0.30273 -2.88697,-0.75933 -3.92674,-1.36977 -1.7143,-1.00644 -2.5961,-2.16457 -2.64631,-3.47502 -0.0427,-1.31495 0.75902,-2.44674 2.40609,-3.39586 1.64849,-0.94995 3.62628,-1.40994 5.93416,-1.37936 2.31033,0.0306 4.32015,0.54482 6.02841,1.54313 1.09881,0.64212 1.87451,1.39946 2.3267,2.2719 z"
     id="text9"
     style="font-weight:500;font-size:65.0198px;line-height:1;font-family:Futura;-inkscape-font-specification:'Futura Medium';text-align:center;letter-spacing:0.650198px;word-spacing:0px;text-anchor:middle;opacity:0.965934;fill:#ffffff;stroke-width:6.04724;stroke-linecap:round;stroke-linejoin:round;paint-order:fill markers stroke"
     aria-label="c" /><path
     d="m 267.60249,178.39164 2.68715,1.56707 -20.03525,10.96791 -2.6632,-1.56481 1.20264,-0.65934 c -2.06598,-0.0533 -3.75708,-0.46717 -5.07465,-1.24136 -1.56728,-0.92115 -2.29516,-1.9999 -2.18502,-3.23683 0.14229,-1.24554 1.08704,-2.34995 2.83696,-3.31371 1.71162,-0.94296 3.65652,-1.4295 5.83538,-1.45898 2.18023,-0.0385 4.04714,0.39609 5.59936,1.30417 1.34837,0.7887 2.00237,1.79809 1.96132,3.02776 z m -20.5237,4.10652 c -1.10003,0.60502 -1.70135,1.2701 -1.80397,1.99539 -0.0944,0.73869 0.31674,1.3775 1.2348,1.91664 0.98169,0.57622 2.11251,0.85643 3.39451,0.84055 1.30526,-0.0288 2.49833,-0.33897 3.57785,-0.93071 1.08019,-0.59209 1.66852,-1.25841 1.76361,-1.99881 0.08,-0.73185 -0.36463,-1.38147 -1.33332,-1.9488 -0.91327,-0.53476 -2.02356,-0.79129 -3.3302,-0.76975 -1.30594,0.0305 -2.4737,0.32906 -3.50328,0.89549 z"
     id="text10"
     style="font-weight:500;font-size:65.0198px;line-height:1;font-family:Futura;-inkscape-font-specification:'Futura Medium';text-align:center;letter-spacing:0.650198px;word-spacing:0px;text-anchor:middle;opacity:0.965934;fill:#ffffff;stroke-width:6.04724;stroke-linecap:round;stroke-linejoin:round;paint-order:fill markers stroke"
     aria-label="d" /></svg>
